<?xml version='1.0' encoding='utf-8'?>
<svg xmlns="http://www.w3.org/2000/svg" version="1.1" id="Layer_1" x="0px" y="0px" viewBox="0 0 500 500" style="enable-background:new 0 0 500 500;"> <style type="text/css"> .st0{fill:#EA1F69;} .st1{fill:#424F59;} .st2{fill:#FFFFFF;} .st3{fill:#5CA3A3;} .st4{fill:#ECEDDF;} .st5{opacity:0.6;fill:#ECEDDF;} .st6{fill:#7B7F86;} .st7{fill:#029736;} .st8{fill:#EACCA2;} .st9{fill:#55636B;} .st10{fill:#ECB800;} .st11{fill:#D7D9BB;} .st12{opacity:0.2;} .st13{opacity:0.3;} .st14{fill:#0081B8;} .st15{fill:#9900B9;} .st16{fill:#F47009;} .st17{fill:#EA5F5D;} .st18{fill:#F4BE4A;} .st19{fill:#A0B400;} .st20{fill:#FA4A78;} .st21{fill:#F68E3D;} .st22{fill-rule:evenodd;clip-rule:evenodd;fill:#2CB0B5;} .st23{fill:#E1B720;} .st24{fill:#02D46A;} .st25{opacity:0.3;fill:#424F59;} .st26{fill:#2CB0B5;} .st27{opacity:0.5;} .st28{fill-rule:evenodd;clip-rule:evenodd;fill:#ECEDDF;} </style> <rect class="st0" width="500" height="500"/> <g> <g id="NOTEBOOK_2_"> <g> <g> <path class="st1" d="M350.2,352.1H139.5V215.9c0-3.7,3-6.7,6.7-6.7h199.5c2.5,0,4.4,2,4.4,4.4V352.1z"/> <path class="st2" d="M147.7,341.8V219.5c0-1.2,1-2.1,2.1-2.1h190.1c1.2,0,2.1,1,2.1,2.1v122.3H147.7z"/> <path class="st2" d="M365.1,351.8H258.9c-11.8,0-26.1,0-34.2,0H118.4v7h246.8V351.8z"/> <path class="st1" d="M118.4,358.7v0.1c0,0,2.2,5.7,6.4,5.7h214.4c23.3,0,24.8-2.6,26-5.7v-0.1H118.4z"/> <path class="st1" d="M227.3,356.7c0,0.4,0.3,0.8,0.8,0.8h27.3c0.4,0,0.8-0.3,0.8-0.8v-0.8c0-0.4-0.3-0.8-0.8-0.8h-27.3 c-0.4,0-0.8,0.3-0.8,0.8V356.7z"/> <rect x="190.9" y="233.8" class="st2" width="151.2" height="108.1"/> <rect x="147.8" y="233.8" class="st3" width="43.1" height="108.1"/> <rect x="147.8" y="265.2" class="st3" width="43.1" height="35.4"/> <rect x="147.8" y="224.2" class="st1" width="194.3" height="9.6"/> <path class="st4" d="M168.3,246.3c0-4.7-3.8-8.6-8.6-8.6c-4.7,0-8.6,3.8-8.6,8.6c0,4.7,3.8,8.6,8.6,8.6 C164.5,254.9,168.3,251,168.3,246.3z"/> <rect x="169.8" y="249.2" class="st4" width="8.1" height="1.1"/> <rect x="165.5" y="269" class="st5" width="8" height="1.1"/> <rect x="176.8" y="269" class="st5" width="2" height="1.1"/> <rect x="179.8" y="269" class="st5" width="2" height="1.1"/> <rect x="159.9" y="259.7" class="st5" width="8" height="1.1"/> <rect x="171.2" y="259.7" class="st5" width="2" height="1.1"/> <rect x="174.2" y="259.7" class="st5" width="2" height="1.1"/> <rect x="169.8" y="244.9" class="st4" width="10.8" height="1.6"/> <rect x="180.6" y="249.2" class="st4" width="7.1" height="1.1"/> <path class="st4" d="M160.7,268.5h-1.3v-0.2c0-0.1-0.1-0.2-0.2-0.2h-1.4c-0.1,0-0.2,0.1-0.2,0.2v0.5v0.5v0.7 c0,0.2,0.1,0.3,0.3,0.3h2.7c0.2,0,0.3-0.1,0.3-0.3v-1.2C161,268.6,160.8,268.5,160.7,268.5z"/> <path class="st6" d="M203.6,245.5h-1.2v-0.2c0-0.1-0.1-0.2-0.2-0.2H201c-0.1,0-0.2,0.1-0.2,0.2v0.4v0.5v0.7 c0,0.2,0.1,0.3,0.3,0.3h2.6c0.2,0,0.3-0.1,0.3-0.3v-1.2C203.9,245.7,203.8,245.5,203.6,245.5z"/> <rect x="165.5" y="274.4" class="st5" width="8" height="1.1"/> <rect x="176.8" y="274.4" class="st5" width="2" height="1.1"/> <rect x="179.8" y="274.4" class="st5" width="2" height="1.1"/> <path class="st4" d="M160.7,273.9h-1.3v-0.2c0-0.1-0.1-0.2-0.2-0.2h-1.4c-0.1,0-0.2,0.1-0.2,0.2v0.5v0.5v0.7 c0,0.2,0.1,0.3,0.3,0.3h2.7c0.2,0,0.3-0.1,0.3-0.3v-1.2C161,274,160.8,273.9,160.7,273.9z"/> <rect x="165.5" y="279.8" class="st5" width="8" height="1.1"/> <rect x="176.8" y="279.8" class="st5" width="2" height="1.1"/> <rect x="179.8" y="279.8" class="st5" width="2" height="1.1"/> <path class="st4" d="M160.7,279.3h-1.3v-0.2c0-0.1-0.1-0.2-0.2-0.2h-1.4c-0.1,0-0.2,0.1-0.2,0.2v0.5v0.5v0.7 c0,0.2,0.1,0.3,0.3,0.3h2.7c0.2,0,0.3-0.1,0.3-0.3v-1.2C161,279.5,160.8,279.3,160.7,279.3z"/> <g> <path class="st4" d="M155.9,258.8L155.9,258.8c-0.2-0.5-0.7-0.9-1.3-0.9c-0.7,0-1.3,0.6-1.4,1.3c-0.5,0-0.9,0.4-0.9,1 c0,0.5,0.4,1,1,1h0.8c0,0,0.4,0,0.4,0v-1.1h-0.5l0.8-0.9l0.8,0.9h-0.5v1.1h1c0.6,0,1.1-0.5,1.1-1.1V260 C157,259.3,156.5,258.8,155.9,258.8z"/> </g> <rect x="199.5" y="253.1" class="st4" width="27.9" height="23.5"/> <rect x="235.5" y="253.1" class="st4" width="27.9" height="23.5"/> <rect x="271.6" y="253.1" class="st4" width="27.9" height="23.5"/> <rect x="200.1" y="237.2" class="st7" width="20" height="5.7"/> <path class="st4" d="M157.3,286.8h27.8c0.3,0,0.6-0.3,0.6-0.6l0,0c0-0.3-0.3-0.6-0.6-0.6h-27.8c-0.3,0-0.6,0.3-0.6,0.6l0,0 C156.7,286.5,157,286.8,157.3,286.8z"/> <rect x="203" y="239.7" class="st4" width="8.8" height="0.7"/> <rect x="214.4" y="239.7" class="st4" width="2.6" height="0.7"/> <rect x="221.1" y="237.2" class="st4" width="20" height="5.7"/> <rect x="224" y="239.7" class="st6" width="7.3" height="0.7"/> <rect x="232.1" y="239.7" class="st6" width="1.5" height="0.7"/> <rect x="234" y="239.7" class="st6" width="2.2" height="0.7"/> <rect x="242" y="237.2" class="st4" width="20" height="5.7"/> <rect x="244.9" y="239.7" class="st6" width="8.8" height="0.7"/> <rect x="255" y="239.7" class="st6" width="2.6" height="0.7"/> <rect x="205.5" y="246" class="st6" width="21.3" height="0.5"/> <rect x="228.8" y="246" class="st6" width="6.2" height="0.5"/> <rect x="262.9" y="237.2" class="st4" width="20" height="5.7"/> <rect x="265.9" y="239.7" class="st6" width="8.8" height="0.7"/> <rect x="277.3" y="239.7" class="st4" width="2.6" height="0.7"/> <rect x="320.5" y="228" class="st2" width="10.1" height="0.6"/> <path class="st7" d="M156.8,286.8h9.5c0.1,0,0.1,0,0.1-0.1v-1c0-0.1,0-0.1-0.1-0.1h-9.5c-0.1,0-0.1,0-0.1,0.1L156.8,286.8 C156.7,286.7,156.8,286.8,156.8,286.8z"/> <g> <path class="st8" d="M162,243.4c0,1.8-0.1,3.7-1.4,3.7c-0.5,0-1.8-0.2-2.3-0.5c-0.7-0.6-0.8-1.7-0.8-2.9c0-1.8,0.7-2.8,2.1-2.8 C161.1,240.8,162,241.5,162,243.4z"/> <path class="st8" d="M158.3,244.2c0,0.6-0.3,1.1-0.6,1.1c-0.4,0-0.6-0.5-0.6-1.1c0-0.6,0.3-1.1,0.6-1.1 C158,243.1,158.3,243.6,158.3,244.2z"/> <polygon class="st8" points="162,242.1 162.3,244.6 161.3,244.6 161.1,242.1 "/> <path class="st9" d="M161.4,243.3c0-0.2-0.2-0.4-0.4-0.4c-0.2,0-0.4,0.2-0.4,0.4c0,0.2,0.2,0.4,0.4,0.4 C161.2,243.7,161.4,243.5,161.4,243.3z"/> <path class="st9" d="M161.7,242.1h-1.3c0,0-1.6-0.2-1.7,0.3c-0.1,0.5-0.2,0.5-0.2,0.8c0.1,0.6,0.1,0.8,0.1,0.8l-0.5-0.1 c0,0,0.2-0.7-0.2-0.8c-0.3-0.1-0.5,0-0.6,0.2c0.1-0.9-0.2-2.8,1.5-2.8c1.7,0,2.6-0.2,3.2-0.1 C162.4,240.5,162.9,241.8,161.7,242.1z"/> <path class="st9" d="M155.2,250.6h9c0-1.7-1.4-3.1-3.1-3.1h-2.7C156.6,247.4,155.2,248.8,155.2,250.6z"/> <polygon class="st8" points="158.3,247.6 159.7,249 160.5,247.6 160.5,246.1 158.3,246.1 "/> </g> <rect x="199.5" y="284.4" class="st4" width="27.9" height="23.5"/> <rect x="235.5" y="284.4" class="st4" width="27.9" height="23.5"/> <rect x="271.6" y="284.4" class="st4" width="27.9" height="23.5"/> <rect x="307.6" y="284.4" class="st4" width="27.9" height="23.5"/> <rect x="199.5" y="312.5" class="st4" width="27.9" height="23.5"/> <rect x="235.5" y="312.5" class="st4" width="27.9" height="23.5"/> <rect x="271.6" y="312.5" class="st4" width="27.9" height="23.5"/> <rect x="307.6" y="312.5" class="st4" width="27.9" height="23.5"/> <circle class="st10" cx="316.3" cy="228.5" r="1.7"/> <g> <rect x="199.5" y="277.9" class="st11" width="4.4" height="1.3"/> <rect x="204.8" y="277.9" class="st11" width="8.2" height="1.3"/> </g> <g> <rect x="235.3" y="309.3" class="st11" width="4.4" height="1.3"/> <rect x="240.7" y="309.3" class="st11" width="8.2" height="1.3"/> </g> <g> <rect x="308.3" y="277.9" class="st11" width="4.4" height="1.3"/> <rect x="313.6" y="277.9" class="st11" width="8.2" height="1.3"/> </g> <rect x="236.4" y="277.9" class="st11" width="6.3" height="1.3"/> <rect x="244.5" y="277.9" class="st11" width="12.4" height="1.3"/> <rect x="273.2" y="308.9" class="st11" width="6.3" height="1.3"/> <rect x="281.3" y="308.9" class="st11" width="12.4" height="1.3"/> <rect x="199.6" y="309.4" class="st11" width="6.3" height="1.3"/> <rect x="207.7" y="309.4" class="st11" width="12.4" height="1.3"/> <rect x="273.8" y="277.9" class="st11" width="3.5" height="1.3"/> <rect x="279.1" y="277.9" class="st11" width="15.2" height="1.3"/> <g> <rect x="271.7" y="337.5" class="st11" width="4.4" height="1.3"/> <rect x="277" y="337.5" class="st11" width="8.2" height="1.3"/> </g> <rect x="199.8" y="337.5" class="st11" width="6.3" height="1.3"/> <rect x="207.9" y="337.5" class="st11" width="12.4" height="1.3"/> <rect x="237.2" y="337.5" class="st11" width="3.5" height="1.3"/> <rect x="242.4" y="337.5" class="st11" width="15.2" height="1.3"/> <rect x="139.5" y="299.5" class="st12" width="20.9" height="42.1"/> <g> <g> <g class="st13"> <path class="st14" d="M256.2,301c0,1-0.8,1.7-1.7,1.7h-10c-1,0-1.7-0.8-1.7-1.7v-9.8c0-1,0.8-1.7,1.7-1.7h10 c1,0,1.7,0.8,1.7,1.7V301z"/> </g> <g class="st13"> <path class="st15" d="M292.2,301c0,1-0.8,1.7-1.7,1.7h-10c-1,0-1.7-0.8-1.7-1.7v-9.8c0-1,0.8-1.7,1.7-1.7h10 c1,0,1.7,0.8,1.7,1.7V301z"/> </g> <g class="st13"> <path class="st16" d="M256.2,269.7c0,1-0.8,1.7-1.7,1.7h-10c-1,0-1.7-0.8-1.7-1.7v-9.8c0-1,0.8-1.7,1.7-1.7h10 c1,0,1.7,0.8,1.7,1.7V269.7z"/> <polygon class="st2" points="248.1,262.4 251.7,264.8 248.1,267.3 "/> </g> <g class="st13"> <path class="st17" d="M220.1,329.2c0,1-0.8,1.7-1.7,1.7h-10c-1,0-1.7-0.8-1.7-1.7v-9.8c0-1,0.8-1.7,1.7-1.7h10 c1,0,1.7,0.8,1.7,1.7V329.2z"/> </g> <g class="st13"> <path class="st18" d="M292.4,270.1c0,1-0.8,1.8-1.8,1.8h-10.2c-1,0-1.8-0.8-1.8-1.8v-10c0-1,0.8-1.8,1.8-1.8h10.2 c1,0,1.8,0.8,1.8,1.8V270.1z"/> <path class="st2" d="M289.3,267.8c-0.2-0.5-1.2-3.8-1.2-3.8l0-0.1L285,261c-0.1-0.1-0.4-0.3-1-0.1c-0.2,0.1-0.4,0.3-0.7,0.6 c-0.1,0.1-0.2,0.2-0.3,0.3c-0.2,0.2-0.4,0.5-0.7,0.7c-0.1,0.1-0.2,0.2-0.3,0.3c-0.3,0.4-0.6,0.6-0.7,0.9 c-0.2,0.5,0,0.9,0.2,1l3.1,3l4,1c0.1,0,0.4,0.1,0.6-0.1C289.3,268.3,289.4,268.1,289.3,267.8z M288.3,266.5l-1.1,1.2 l-2.2-0.5l0.5-0.3l0,0c0.1,0,0.2-0.1,0.5-1.2c1.1-0.4,1.2-0.6,1.3-0.7l0.2-0.6C287.7,264.7,288,265.6,288.3,266.5z M283.4,262.1c0.1-0.1,0.2-0.2,0.3-0.3c0.2-0.2,0.4-0.4,0.5-0.4c0.3-0.1,0.5,0,0.5,0l2.6,2.5l-0.3,0.8c-0.1,0-0.3,0.2-1,0.4 l-2.8-2.7C283.1,262.3,283.3,262.2,283.4,262.1z M281.8,264.2c0,0-0.1-0.1,0-0.4c0.1-0.2,0.4-0.6,0.6-0.7 c0.1-0.1,0.2-0.2,0.3-0.3l2.9,2.7c-0.1,0.5-0.2,0.7-0.3,0.8l-0.8,0.4L281.8,264.2L281.8,264.2z M288.8,268l-1-0.2l0.7-0.7 C288.6,267.5,288.7,267.8,288.8,268L288.8,268z"/> </g> <rect x="307.6" y="253.1" class="st4" width="27.9" height="23.5"/> <g class="st13"> <path class="st19" d="M256.1,329.1c0,0.9-0.8,1.7-1.7,1.7h-9.9c-0.9,0-1.7-0.8-1.7-1.7v-9.7c0-0.9,0.8-1.7,1.7-1.7h9.9 c0.9,0,1.7,0.8,1.7,1.7V329.1z"/> <g> <path class="st2" d="M249.9,322.6c-0.8,0-1.4,0.6-1.4,1.4c0,0.8,0.7,1.4,1.4,1.4c0.8,0,1.4-0.6,1.4-1.4 C251.3,323.3,250.7,322.6,249.9,322.6z"/> <path class="st2" d="M253.6,326.1v-3.8c0-0.6-0.4-1-1-1h-0.8l-0.4-0.6h-2.9l-0.3,0.6h-0.9v-0.1c0,0-0.2,0-0.6,0 c-0.4,0-0.6,0-0.6,0v0.2c-0.6,0.1-1.1,0.5-1.1,1v3.8c0,0.6,0.5,1,1,1h6.5C253.1,327.1,253.6,326.7,253.6,326.1z M246.1,322.7c-0.1,0-0.3-0.1-0.3-0.3c0-0.1,0.1-0.3,0.3-0.3c0.1,0,0.3,0.1,0.3,0.3C246.4,322.6,246.3,322.7,246.1,322.7z M249.9,326.4c-1.3,0-2.4-1.1-2.4-2.4c0-1.3,1.1-2.4,2.4-2.4c1.3,0,2.4,1.1,2.4,2.4C252.3,325.4,251.2,326.4,249.9,326.4z"/> </g> </g> <g class="st13"> <path class="st19" d="M219.7,300.9c0,0.9-0.8,1.7-1.7,1.7h-9.9c-0.9,0-1.7-0.8-1.7-1.7v-9.7c0-0.9,0.8-1.7,1.7-1.7h9.9 c0.9,0,1.7,0.8,1.7,1.7V300.9z"/> <g> <path class="st2" d="M213.5,294.4c-0.8,0-1.4,0.6-1.4,1.5c0,0.8,0.7,1.4,1.4,1.4c0.8,0,1.4-0.6,1.4-1.4 C214.9,295.1,214.3,294.4,213.5,294.4z"/> <path class="st2" d="M217.1,297.9v-3.8c0-0.6-0.4-1-1-1h-0.7l-0.4-0.6h-2.9l-0.3,0.6h-0.9V293c0,0-0.2,0-0.6,0 c-0.4,0-0.6,0-0.6,0v0.2c-0.6,0.1-1.1,0.5-1.1,1v3.8c0,0.6,0.5,1,1,1h6.5C216.7,298.9,217.1,298.4,217.1,297.9z M209.7,294.5c-0.1,0-0.3-0.1-0.3-0.3c0-0.1,0.1-0.3,0.3-0.3c0.2,0,0.3,0.1,0.3,0.3C210,294.4,209.9,294.5,209.7,294.5z M213.5,298.2c-1.3,0-2.4-1.1-2.4-2.4c0-1.3,1.1-2.4,2.4-2.4c1.3,0,2.4,1.1,2.4,2.4C215.8,297.2,214.8,298.2,213.5,298.2z"/> </g> </g> <g> <path class="st2" d="M210.3,324.5v1.4H210v-3.3h1.1c0.3,0,0.6,0.1,0.8,0.3c0.2,0.2,0.3,0.4,0.3,0.7c0,0.3-0.1,0.5-0.3,0.7 c-0.2,0.2-0.5,0.3-0.8,0.3H210.3z M210.3,324.3h0.9c0.3,0,0.5-0.1,0.6-0.2c0.1-0.1,0.2-0.3,0.2-0.5c0-0.2-0.1-0.4-0.2-0.5 c-0.1-0.1-0.3-0.2-0.6-0.2h-0.9V324.3z"/> <path class="st2" d="M212.9,325.9v-3.3h1c0.4,0,0.7,0.1,1,0.4s0.4,0.6,0.4,1v0.4c0,0.4-0.1,0.8-0.4,1c-0.3,0.3-0.6,0.4-1,0.4 H212.9z M213.1,322.8v2.8h0.7c0.3,0,0.6-0.1,0.8-0.3c0.2-0.2,0.3-0.5,0.3-0.9V324c0-0.3-0.1-0.6-0.3-0.9 c-0.2-0.2-0.5-0.3-0.8-0.3H213.1z"/> <path class="st2" d="M217.8,324.3h-1.6v1.5h-0.3v-3.3h2.1v0.2h-1.8v1.3h1.6V324.3z"/> </g> <g> <path class="st2" d="M283,294.4h0.3v2.4c0,0.3-0.1,0.5-0.3,0.7c-0.2,0.2-0.4,0.3-0.7,0.3c-0.3,0-0.6-0.1-0.7-0.2 c-0.2-0.2-0.3-0.4-0.3-0.7l0,0h0.3c0,0.2,0.1,0.4,0.2,0.5c0.1,0.1,0.3,0.2,0.5,0.2c0.2,0,0.4-0.1,0.5-0.2 c0.1-0.1,0.2-0.3,0.2-0.5V294.4z"/> <path class="st2" d="M284.4,296.3v1.4h-0.3v-3.3h1.1c0.3,0,0.6,0.1,0.8,0.3c0.2,0.2,0.3,0.4,0.3,0.7c0,0.3-0.1,0.5-0.3,0.7 c-0.2,0.2-0.5,0.3-0.8,0.3H284.4z M284.4,296.1h0.9c0.3,0,0.5-0.1,0.6-0.2c0.1-0.1,0.2-0.3,0.2-0.5c0-0.2-0.1-0.4-0.2-0.5 c-0.1-0.1-0.3-0.2-0.6-0.2h-0.9V296.1z"/> <path class="st2" d="M289.3,297.3c-0.1,0.1-0.2,0.2-0.4,0.3c-0.2,0.1-0.4,0.1-0.7,0.1c-0.4,0-0.7-0.1-0.9-0.4 c-0.2-0.3-0.4-0.6-0.4-1v-0.6c0-0.4,0.1-0.7,0.3-1c0.2-0.3,0.5-0.4,0.9-0.4c0.4,0,0.6,0.1,0.8,0.3c0.2,0.2,0.3,0.4,0.3,0.7 l0,0h-0.3c0-0.2-0.1-0.4-0.3-0.5c-0.1-0.1-0.4-0.2-0.6-0.2c-0.3,0-0.5,0.1-0.7,0.3c-0.2,0.2-0.3,0.5-0.3,0.8v0.6 c0,0.3,0.1,0.6,0.3,0.8c0.2,0.2,0.4,0.3,0.7,0.3c0.2,0,0.4,0,0.6-0.1c0.2-0.1,0.3-0.1,0.3-0.2v-0.9h-0.9v-0.2h1.1V297.3z"/> </g> <g class="st13"> <path class="st20" d="M220.1,269.7c0,1-0.8,1.7-1.7,1.7h-10c-1,0-1.7-0.8-1.7-1.7v-9.8c0-1,0.8-1.7,1.7-1.7h10 c1,0,1.7,0.8,1.7,1.7V269.7z"/> <path class="st2" d="M216.3,266.6c0,0,0-3.7,0-4.7c0-0.1-0.1-0.3-0.3-0.3h-0.6l-3.3,0.4l-0.6,0.1c-0.1,0-0.2,0.1-0.2,0.3v3.7 c-0.2-0.1-0.4-0.1-0.6,0c-0.7,0.1-1.3,0.6-1.2,1.2c0.1,0.6,0.7,1,1.5,0.8c0.7-0.1,1.3-0.6,1.2-1.2c0,0,0,0,0,0h0l0-3.1 l3.3-0.4v2.4c-0.2,0-0.4-0.1-0.6,0c-0.7,0.1-1.3,0.6-1.2,1.2c0.1,0.6,0.7,0.9,1.5,0.8C215.9,267.8,216.4,267.2,216.3,266.6z"/> </g> <g class="st13"> <path class="st20" d="M328.3,301c0,1-0.8,1.7-1.7,1.7h-10c-1,0-1.7-0.8-1.7-1.7v-9.8c0-1,0.8-1.7,1.7-1.7h10 c1,0,1.7,0.8,1.7,1.7V301z"/> <path class="st2" d="M324.5,297.9c0,0,0-3.7,0-4.7c0-0.1-0.1-0.3-0.3-0.3h-0.6l-3.3,0.4l-0.6,0.1c-0.1,0-0.2,0.1-0.2,0.3v3.7 c-0.2-0.1-0.4-0.1-0.6,0c-0.7,0.1-1.3,0.6-1.2,1.2c0.1,0.6,0.7,1,1.5,0.8c0.7-0.1,1.3-0.6,1.2-1.2c0,0,0,0,0,0h0l0-3.1 l3.3-0.4v2.4c-0.2,0-0.4-0.1-0.6,0c-0.7,0.1-1.3,0.6-1.2,1.2c0.1,0.6,0.7,0.9,1.5,0.8C324,299,324.6,298.5,324.5,297.9z"/> </g> <g class="st13"> <path class="st20" d="M292.2,329.2c0,1-0.8,1.7-1.7,1.7h-10c-1,0-1.7-0.8-1.7-1.7v-9.8c0-1,0.8-1.7,1.7-1.7h10 c1,0,1.7,0.8,1.7,1.7V329.2z"/> <path class="st2" d="M288.4,326.1c0,0,0-3.7,0-4.7c0-0.1-0.1-0.3-0.3-0.3h-0.6l-3.3,0.4l-0.6,0.1c-0.1,0-0.2,0.1-0.2,0.3v3.7 c-0.2,0-0.4-0.1-0.6,0c-0.7,0.1-1.3,0.6-1.2,1.2c0.1,0.6,0.7,0.9,1.5,0.9c0.7-0.1,1.3-0.6,1.2-1.2c0,0,0,0,0,0h0l0-3.1 l3.3-0.4v2.4c-0.2,0-0.4-0.1-0.6,0c-0.7,0.1-1.3,0.6-1.2,1.2c0.1,0.6,0.7,0.9,1.5,0.8C288,327.2,288.5,326.6,288.4,326.1z"/> </g> <g class="st13"> <path class="st21" d="M328.3,269.7c0,1-0.8,1.7-1.7,1.7h-10c-1,0-1.7-0.8-1.7-1.7v-9.8c0-1,0.8-1.7,1.7-1.7h10 c1,0,1.7,0.8,1.7,1.7V269.7z"/> <path class="st2" d="M325.7,267.3h-1.4c0.7-0.7,1.1-1.6,1.1-2.6c0-2-1.7-3.7-3.7-3.7c-2,0-3.7,1.7-3.7,3.7 c0,2,1.7,3.7,3.7,3.7c0.9,0,1.7-0.3,2.4-0.9h1.7V267.3z M319.8,265.7c-0.5,0-0.9-0.4-0.9-0.9c0-0.5,0.4-0.9,0.9-0.9 c0.5,0,0.9,0.4,0.9,0.9C320.7,265.3,320.3,265.7,319.8,265.7z M321.7,267.8c-0.5,0-0.9-0.4-0.9-0.9c0-0.5,0.4-0.9,0.9-0.9 c0.5,0,0.9,0.4,0.9,0.9C322.6,267.4,322.2,267.8,321.7,267.8z M321.7,263.6c-0.5,0-0.9-0.4-0.9-0.9c0-0.5,0.4-0.9,0.9-0.9 c0.5,0,0.9,0.4,0.9,0.9C322.6,263.2,322.2,263.6,321.7,263.6z M323,264.8c0-0.5,0.4-0.9,0.9-0.9c0.5,0,0.9,0.4,0.9,0.9 c0,0.5-0.4,0.9-0.9,0.9C323.4,265.7,323,265.3,323,264.8z M321.7,265.3c-0.3,0-0.6-0.2-0.6-0.6c0-0.3,0.2-0.6,0.6-0.6 c0.3,0,0.6,0.2,0.6,0.6C322.2,265,322,265.3,321.7,265.3z"/> </g> </g> <g> <path class="st2" d="M247.3,296.3v1.4H247v-3.3h1.1c0.3,0,0.6,0.1,0.8,0.3c0.2,0.2,0.3,0.4,0.3,0.7c0,0.3-0.1,0.5-0.3,0.7 c-0.2,0.2-0.5,0.3-0.8,0.3H247.3z M247.3,296.1h0.9c0.3,0,0.5-0.1,0.6-0.2c0.1-0.1,0.2-0.3,0.2-0.5c0-0.2-0.1-0.4-0.2-0.5 c-0.1-0.1-0.3-0.2-0.6-0.2h-0.9V296.1z"/> <path class="st2" d="M251.8,296.9c0-0.2-0.1-0.3-0.2-0.4c-0.1-0.1-0.4-0.2-0.7-0.3c-0.4-0.1-0.6-0.2-0.8-0.4 c-0.2-0.1-0.3-0.3-0.3-0.6c0-0.3,0.1-0.5,0.3-0.6c0.2-0.2,0.5-0.2,0.8-0.2c0.3,0,0.6,0.1,0.8,0.3c0.2,0.2,0.3,0.4,0.3,0.7l0,0 h-0.2c0-0.2-0.1-0.4-0.2-0.5c-0.2-0.1-0.4-0.2-0.6-0.2c-0.3,0-0.5,0.1-0.6,0.2c-0.1,0.1-0.2,0.3-0.2,0.4 c0,0.2,0.1,0.3,0.2,0.4s0.4,0.2,0.7,0.3c0.4,0.1,0.6,0.2,0.8,0.4c0.2,0.2,0.3,0.4,0.3,0.6c0,0.3-0.1,0.5-0.3,0.6 c-0.2,0.2-0.5,0.2-0.8,0.2c-0.3,0-0.6-0.1-0.9-0.2c-0.2-0.2-0.4-0.4-0.4-0.7l0,0h0.2c0,0.3,0.1,0.4,0.3,0.6 c0.2,0.1,0.4,0.2,0.7,0.2c0.3,0,0.5-0.1,0.6-0.2C251.7,297.2,251.8,297.1,251.8,296.9z"/> </g> </g> <rect x="165.3" y="228.6" class="st22" width="15.4" height="2.2"/> <g> <path class="st4" d="M159.9,227.5L159.9,227.5c-0.5-1-1.5-1.8-2.7-1.8c-1.5,0-2.8,1.2-2.9,2.7c-1,0.1-1.9,0.9-1.9,2 c0,1.1,0.9,2,2,2h1.6c0.1,0,0.8,0,0.8,0v-2.3h-1l1.6-1.9l1.6,1.9h-1v2.3h2c1.3,0,2.3-1,2.3-2.3v-0.3 C162.2,228.5,161.1,227.5,159.9,227.5z"/> </g> </g> <g> <path class="st17" d="M157.5,220.6c0-1.1-0.9-2-2-2c-1.1,0-2,0.9-2,2c0,1.1,0.9,2,2,2C156.6,222.6,157.5,221.7,157.5,220.6z"/> <path class="st23" d="M164.5,220.6c0-1.1-0.9-2-2-2c-1.1,0-2,0.9-2,2c0,1.1,0.9,2,2,2C163.6,222.6,164.5,221.7,164.5,220.6z"/> <path class="st24" d="M171.9,220.6c0-1.1-0.9-2-2-2c-1.1,0-2,0.9-2,2c0,1.1,0.9,2,2,2C171,222.6,171.9,221.7,171.9,220.6z"/> </g> </g> <rect x="196.7" y="228" class="st2" width="4.7" height="0.6"/> <rect x="201.8" y="228" class="st2" width="10.1" height="0.6"/> <rect x="223.7" y="228" class="st2" width="10.1" height="0.6"/> <rect x="243.3" y="228" class="st2" width="10.1" height="0.6"/> </g> <g id="ICONS_3_"> <g> <path class="st2" d="M154.6,166.1c0,0-1-0.2-2.6-0.3l0.1-1.1c1.7,0.1,2.7,0.3,2.7,0.3L154.6,166.1z"/> <path class="st2" d="M247.5,225.3c-1.5,0-3.1-0.1-4.6-0.2l0.1-1.1c1.8,0.1,3.6,0.2,5.3,0.2l0,1.1 C248.1,225.3,247.8,225.3,247.5,225.3z M253.8,225l-0.1-1.1c1.8-0.2,3.6-0.5,5.3-0.8l0.2,1.1C257.4,224.5,255.6,224.8,253.8,225z M237.5,224.5c-1.9-0.3-3.7-0.6-5.3-1l0.2-1.1c1.6,0.4,3.4,0.7,5.3,1L237.5,224.5z M264.4,222.7l-0.3-1c1.7-0.6,3.4-1.2,5-2 l0.5,1C267.9,221.4,266.2,222.1,264.4,222.7z M226.9,222.1c-1.9-0.6-3.6-1.4-5-2.2l0.5-0.9c1.4,0.8,3,1.5,4.9,2.1L226.9,222.1z M274.3,218.1l-0.6-0.9c1.5-1,3-2,4.3-3.2l0.7,0.8C277.4,216,275.9,217.1,274.3,218.1z M217.5,216.4c-1.1-1.4-1.6-3-1.6-4.7 c0-0.2,0-0.5,0-0.7l1.1,0.1c0,0.2,0,0.4,0,0.6c0,1.4,0.5,2.8,1.4,4L217.5,216.4z M282.5,210.8l-0.8-0.7c1.1-1.4,2.1-2.9,2.8-4.5 l1,0.4C284.6,207.7,283.7,209.3,282.5,210.8z M133.1,207.6c-1.9-0.1-3.8-0.2-5.4-0.4l0.1-1.1c1.6,0.2,3.4,0.3,5.3,0.4 L133.1,207.6z M138.5,207.6l0-1.1c1.7-0.1,3.5-0.2,5.4-0.3l0.1,1.1C142,207.4,140.2,207.6,138.5,207.6z M149.3,206.7l-0.1-1.1 c1.7-0.2,3.5-0.5,5.3-0.8l0.2,1.1C152.9,206.2,151,206.5,149.3,206.7z M122.2,206.2c-1.9-0.5-3.7-1.2-5.1-2l0.5-0.9 c1.4,0.8,3,1.4,4.9,1.9L122.2,206.2z M160,205l-0.2-1.1c1.8-0.3,3.5-0.7,5.3-1.1l0.2,1.1C163.6,204.3,161.8,204.7,160,205z M170.6,202.7l-0.3-1c0.9-0.2,1.4-0.4,1.6-0.4c0.3-0.2,1.4-0.8,3.1-1.8l0.5,0.9c-2,1.1-3.2,1.8-3.2,1.8l-0.1,0l-0.1,0 C172.3,202.2,171.7,202.4,170.6,202.7z M286.9,200.8l-1.1-0.1c0.1-0.7,0.1-1.4,0.1-2.1c0-1-0.1-2-0.3-3.1l1.1-0.2 c0.2,1.1,0.3,2.2,0.3,3.3C287.1,199.3,287,200,286.9,200.8z M112.8,200.6c-1.1-1.5-1.8-3.2-2.1-5.2l1.1-0.2 c0.3,1.8,0.9,3.3,1.9,4.7L112.8,200.6z M180.4,197.8l-0.5-1c1.6-0.8,3.2-1.7,4.8-2.5l0.5,1C183.6,196.1,181.9,196.9,180.4,197.8z M190,192.9l-0.5-1c1.6-0.8,3.3-1.6,4.9-2.3l0.4,1C193.3,191.4,191.6,192.2,190,192.9z M283.9,190.6c-0.8-1.5-1.9-2.9-3.1-4.2 l0.8-0.7c1.3,1.4,2.4,2.9,3.3,4.4L283.9,190.6z M111.7,190l-1.1-0.1c0.1-1.9,0.4-3.7,0.8-5.4l1,0.3 C112,186.4,111.8,188.2,111.7,190z M199.9,188.5l-0.4-1c1.7-0.7,3.4-1.4,5-2.1l0.4,1C203.2,187.1,201.5,187.7,199.9,188.5z M209.9,184.4l-0.4-1c1.7-0.6,3.4-1.3,5.1-1.8l0.4,1C213.3,183.2,211.6,183.8,209.9,184.4z M276.8,182.9c-1.4-1-2.9-2-4.5-2.8 l0.5-0.9c1.7,0.9,3.2,1.9,4.6,2.9L276.8,182.9z M220.1,180.9l-0.3-1c1.8-0.5,3.5-1.1,5.2-1.5l0.3,1 C223.5,179.9,221.8,180.4,220.1,180.9z M114.3,179.9l-1-0.5c0.8-1.6,1.9-3.2,3.1-4.6l0.8,0.7 C116.1,176.8,115.1,178.3,114.3,179.9z M230.4,178.1l-0.2-1c1.8-0.4,3.6-0.8,5.3-1.1l0.2,1.1C234,177.3,232.2,177.6,230.4,178.1z M267.4,177.8c-1.6-0.6-3.3-1.1-5.1-1.5l0.2-1.1c1.8,0.4,3.6,0.9,5.3,1.5L267.4,177.8z M241,176.1l-0.1-1.1 c1.8-0.2,3.7-0.4,5.4-0.6l0.1,1.1C244.6,175.7,242.8,175.8,241,176.1z M257,175.6c-1.7-0.2-3.5-0.2-5.3-0.3l0-1.1 c1.9,0,3.7,0.1,5.4,0.3L257,175.6z M121.1,172l-0.6-0.9c1.4-1,3-1.9,4.8-2.7l0.4,1C124,170.1,122.5,171,121.1,172z M130.7,167.5 l-0.3-1c1.7-0.5,3.5-0.9,5.3-1.2l0.2,1.1C134.1,166.7,132.3,167.1,130.7,167.5z M141.2,165.7l-0.1-1.1c1.6-0.1,3.2-0.2,4.9-0.2 c0.2,0,0.4,0,0.5,0l0,1.1c-0.2,0-0.4,0-0.5,0C144.4,165.6,142.8,165.6,141.2,165.7z"/> <path class="st2" d="M218.8,206.4l-0.9-0.6c0.9-1.3,1.7-2.1,1.8-2.2l0.7,0.8C220.5,204.4,219.7,205.2,218.8,206.4z"/> </g> <g> <path class="st2" d="M81.5,259c-0.4-0.3-1.1-0.9-1.5-0.6l-0.4-0.8c0.7-0.4,1.6-0.1,2.6,0.8L81.5,259z"/> <path class="st2" d="M133.2,339.9c-1.3,0-2.5-0.2-3.7-0.6l0.3-0.9c1.4,0.5,2.9,0.7,4.3,0.5l0.1,0.9 C133.9,339.9,133.5,339.9,133.2,339.9z M138.7,338.6l-0.4-0.8c1.3-0.6,2.5-1.4,3.8-2.4l0.6,0.7 C141.4,337.1,140.1,338,138.7,338.6z M125.3,337.1c-1.3-0.9-2.5-1.9-3.6-3l0.7-0.6c1,1.1,2.2,2,3.4,2.9L125.3,337.1z M146,332.7 l-0.7-0.6c0.9-1.1,1.8-2.3,2.7-3.7l0.8,0.5C147.9,330.3,147,331.6,146,332.7z M118.9,330.3c-0.8-1.3-1.4-2.7-2-4.3l0.9-0.3 c0.5,1.5,1.1,2.8,1.9,4.1L118.9,330.3z M151,324.9l-0.8-0.4c0.6-1.3,1.2-2.8,1.8-4.2l0.9,0.3C152.3,322.1,151.7,323.5,151,324.9z M115.8,321.5c-0.2-1.5-0.4-3-0.4-4.6l0.9,0c0,1.6,0.2,3.1,0.4,4.5L115.8,321.5z M154.2,316.1l-0.9-0.2c0.4-1.5,0.7-3,1-4.5 l0.9,0.2C154.9,313.1,154.6,314.7,154.2,316.1z M86.9,315.3l-0.1-0.9c1.6-0.1,3-0.5,4.2-1.2l0.5,0.8 C90.2,314.7,88.6,315.2,86.9,315.3z M82.2,314.8c-1.5-0.5-2.9-1.3-4.1-2.4l0.6-0.7c1.1,1,2.4,1.8,3.8,2.2L82.2,314.8z M116.4,312.3l-0.9-0.1c0.1-1.5,0.3-3.1,0.6-4.6l0.9,0.2C116.8,309.3,116.6,310.8,116.4,312.3z M94.9,310.6l-0.8-0.5 c0.7-1.1,1.2-2.5,1.6-4.2l0.9,0.2C96.1,307.9,95.6,309.4,94.9,310.6z M75.3,308.5c-0.6-1.4-1.1-2.9-1.3-4.5l0.9-0.1 c0.2,1.5,0.6,3,1.2,4.3L75.3,308.5z M155.8,307l-0.9-0.1c0.1-1.5,0.2-2.9,0.2-4.4l0-0.2l0.9,0l0,0.2 C155.9,304,155.9,305.5,155.8,307z M97,301.5l-0.9,0c0-0.3,0-0.6,0-0.9c0-1.2-0.1-2.4-0.2-3.7l0.9-0.1c0.1,1.3,0.2,2.6,0.2,3.8 C97,300.9,97,301.2,97,301.5z M74.9,299.4l-0.9-0.1c0.2-1.6,0.6-3.1,1.2-4.6L76,295C75.4,296.4,75,297.9,74.9,299.4z M154.8,297.8c-0.1-1.5-0.3-3-0.6-4.5l0.9-0.2c0.3,1.5,0.5,3.1,0.6,4.6L154.8,297.8z M95.3,292.4c-0.2-1.4-0.6-3-0.9-4.5l0.9-0.2 c0.4,1.6,0.7,3.1,0.9,4.5L95.3,292.4z M78.2,291.2l-0.8-0.5c0.9-1.2,1.8-2.4,2.9-3.6l0.7,0.6C80,288.8,79.1,290,78.2,291.2z M153.1,288.8c-0.4-1.5-0.9-2.9-1.4-4.3l0.9-0.3c0.6,1.4,1.1,2.9,1.5,4.4L153.1,288.8z M84.3,284.3l-0.6-0.7 c1.1-1,2.3-2.1,3.5-3.1l0.6,0.7C86.5,282.3,85.4,283.3,84.3,284.3z M93.2,283.5c-0.4-1.4-0.9-2.9-1.4-4.4l0.9-0.3 c0.5,1.5,1,3,1.4,4.4L93.2,283.5z M149.8,280.4c-0.7-1.4-1.4-2.7-2.2-4l0.8-0.5c0.8,1.3,1.6,2.7,2.3,4L149.8,280.4z M91.4,278.6 l-0.5-0.8c1.2-0.9,2.5-1.8,3.8-2.6l0.5,0.8C93.9,276.8,92.6,277.7,91.4,278.6z M90.3,274.8c-0.6-1.4-1.2-2.9-1.8-4.2l0.8-0.4 c0.6,1.4,1.2,2.8,1.8,4.3L90.3,274.8z M99.1,273.7l-0.5-0.8c1.3-0.8,2.7-1.5,4.1-2.1l0.4,0.8C101.8,272.2,100.4,272.9,99.1,273.7 z M145,272.7c-0.5-0.7-1.1-1.4-1.6-2c-0.4-0.5-0.9-0.9-1.4-1.4l0.6-0.7c0.5,0.5,1,0.9,1.4,1.5c0.6,0.7,1.1,1.4,1.7,2L145,272.7z M107.3,269.7l-0.4-0.9c1.4-0.6,2.9-1.2,4.3-1.7l0.3,0.9C110.2,268.5,108.8,269.1,107.3,269.7z M138.2,266.8 c-1.3-0.6-2.7-1.1-4.3-1.4l0.2-0.9c1.6,0.3,3.1,0.8,4.5,1.5L138.2,266.8z M116,266.7l-0.2-0.9c1.5-0.4,3.1-0.8,4.5-1l0.2,0.9 C119,265.9,117.5,266.3,116,266.7z M86.5,266.5c-0.8-1.5-1.5-2.8-2.3-4L85,262c0.7,1.2,1.5,2.5,2.3,4L86.5,266.5z M125,265 l-0.1-0.9c1.6-0.1,3.2-0.2,4.7-0.1l0,0.9C128.1,264.8,126.5,264.9,125,265z"/> <path class="st2" d="M118.1,303.3l-0.9-0.2c0.4-1.4,0.7-2.2,0.7-2.2l0.9,0.3C118.7,301.1,118.4,301.9,118.1,303.3z"/> </g> <g> <path class="st2" d="M384.8,279c-1.1-0.3-1.9-0.8-2.6-1.3l0.7-0.8c0.5,0.5,1.3,0.8,2.2,1.1L384.8,279z"/> <path class="st2" d="M348.4,288.3c-0.7-1.6-1.4-3.3-2-5.2l1-0.3c0.6,1.8,1.2,3.5,1.9,5L348.4,288.3z M390.4,279.3l-0.1-1.1 c1.7-0.1,3.5-0.5,5.2-1l0.3,1C394,278.8,392.1,279.2,390.4,279.3z M345,277.8c-0.4-1.7-0.7-3.5-0.9-5.4l1.1-0.1 c0.2,1.8,0.5,3.6,0.9,5.3L345,277.8z M401,276.3l-0.5-1c1.8-0.9,3.2-1.9,4.4-2.9l0.7,0.8C404.5,274.3,402.9,275.4,401,276.3z M411.2,268.3l-0.1-1.1c1.8-0.1,3.6-0.3,5.3-0.7l0.2,1.1C415,267.9,413.1,268.2,411.2,268.3z M408.5,268.2l-1.1-0.1 c0-0.1,0-0.2,0-0.3c0-0.4,0-0.8,0-1.3c0-0.6,0-1.3,0-2c0-0.6,0-1.2,0-1.7l1.1-0.1c0,0.6,0.1,1.1,0.1,1.8c0,0.7,0,1.4,0,2 c0,0.5,0,0.9,0,1.3C408.5,267.9,408.5,268.1,408.5,268.2z M405.7,268.2c-2-0.2-3.9-0.5-5.5-1l0.3-1c1.5,0.5,3.3,0.8,5.2,1 L405.7,268.2z M343.7,266.9c-0.1-1.8-0.2-3.6-0.2-5.5l1.1,0c0,1.8,0.1,3.7,0.2,5.4L343.7,266.9z M422,265.9l-0.4-1 c0.2-0.1,0.4-0.2,0.6-0.3c1.4-0.7,2.7-1.5,3.9-2.5l0.7,0.8c-1.3,1-2.7,1.9-4.2,2.7C422.4,265.7,422.2,265.8,422,265.9z M395.4,264.1c-0.1-0.2-0.2-0.5-0.3-0.7c-0.1-0.4-0.2-0.7-0.2-1.1c0-1.2,0.6-2.6,1.6-3.8l0.8,0.7c-0.9,1-1.4,2.2-1.4,3.1 c0,0.3,0,0.5,0.1,0.8c0.1,0.2,0.1,0.3,0.2,0.5L395.4,264.1z M430.5,258.8l-0.9-0.6c1-1.4,1.8-3,2.5-4.7l1,0.4 C432.4,255.7,431.5,257.4,430.5,258.8z M406,257.9c-0.9-1.2-2.4-1.6-4.4-1.2l-0.2-1.1c2.4-0.5,4.3,0,5.5,1.6L406,257.9z M344.7,256l-1.1-0.1c0.1-1.8,0.2-3.6,0.4-5.5l1.1,0.1C344.9,252.4,344.8,254.2,344.7,256z M434.8,248.6l-1.1-0.2 c0.4-1.7,0.6-3.5,0.7-5.3l1.1,0.1C435.4,245.1,435.1,246.9,434.8,248.6z M345.7,245.2l-1.1-0.1c0.3-1.8,0.5-3.6,0.9-5.4l1.1,0.2 C346.3,241.6,346,243.4,345.7,245.2z M434.5,237.7c-0.1-1.8-0.3-3.6-0.5-5.4l1.1-0.2c0.3,1.8,0.5,3.7,0.5,5.5L434.5,237.7z M347.7,234.5l-1.1-0.2c0.4-1.8,0.9-3.6,1.4-5.3l1,0.3C348.6,231,348.1,232.7,347.7,234.5z M432.9,227c-0.4-1.7-1-3.5-1.6-5.2 l1-0.4c0.6,1.7,1.1,3.5,1.6,5.3L432.9,227z M350.7,224.1l-1-0.4c0.6-1.8,1.3-3.5,2-5.1l1,0.4C352,220.6,351.4,222.3,350.7,224.1z M429.3,216.9c-0.8-1.7-1.7-3.2-2.6-4.7l0.9-0.6c0.9,1.5,1.8,3.1,2.6,4.8L429.3,216.9z M355.1,214.3l-0.9-0.5 c0.9-1.6,1.9-3.2,3-4.6l0.9,0.6C357,211.1,356.1,212.7,355.1,214.3z M423.6,207.8c-1.2-1.4-2.4-2.7-3.7-3.8l0.7-0.8 c1.3,1.1,2.6,2.5,3.9,4L423.6,207.8z M361.5,205.5l-0.8-0.7c1.3-1.4,2.6-2.7,4-3.8l0.7,0.8C364,202.9,362.7,204.2,361.5,205.5z M415.5,200.8c-1.5-1-3.1-1.9-4.7-2.7l0.5-1c1.7,0.8,3.3,1.7,4.8,2.7L415.5,200.8z M369.6,198.6l-0.6-0.9c1.6-1,3.2-1.9,4.9-2.6 l0.4,1C372.8,196.8,371.2,197.7,369.6,198.6z M405.9,196c-1.7-0.6-3.4-1.2-5.1-1.6l0.3-1c1.8,0.4,3.5,1,5.3,1.6L405.9,196z M379.4,194.3l-0.3-1c1.8-0.5,3.6-0.8,5.4-1.1l0.1,1.1C382.9,193.5,381.1,193.8,379.4,194.3z M395.4,193.3 c-1.8-0.2-3.6-0.4-5.4-0.4l0-1.1c1.8,0,3.7,0.1,5.5,0.4L395.4,193.3z"/> <path class="st2" d="M352.9,295.3c-0.6-0.7-1.2-1.4-1.7-2.2l0.9-0.6c0.5,0.7,1.1,1.4,1.6,2.1L352.9,295.3z"/> </g> <g> <g> <rect x="137.7" y="162.8" class="st2" width="29.8" height="33.4"/> <g> <path class="st17" d="M162.1,186.3c0,1.3-1.1,2.4-2.4,2.4h-14c-1.3,0-2.4-1.1-2.4-2.4v-13.7c0-1.3,1.1-2.4,2.4-2.4h14 c1.3,0,2.4,1.1,2.4,2.4V186.3z"/> </g> <g> <path class="st2" d="M148.3,179.8v1.9h-0.4v-4.6h1.6c0.5,0,0.9,0.1,1.1,0.4c0.3,0.2,0.4,0.6,0.4,1c0,0.4-0.1,0.7-0.4,1 c-0.3,0.2-0.6,0.4-1.1,0.4H148.3z M148.3,179.5h1.2c0.4,0,0.7-0.1,0.9-0.3c0.2-0.2,0.3-0.4,0.3-0.7c0-0.3-0.1-0.5-0.3-0.7 c-0.2-0.2-0.5-0.3-0.9-0.3h-1.2V179.5z"/> <path class="st2" d="M151.9,181.7v-4.6h1.3c0.6,0,1,0.2,1.4,0.6c0.4,0.4,0.5,0.9,0.5,1.4v0.6c0,0.6-0.2,1.1-0.5,1.4 c-0.4,0.4-0.8,0.6-1.4,0.6H151.9z M152.2,177.5v3.9h1c0.5,0,0.8-0.2,1.1-0.5c0.3-0.3,0.4-0.7,0.4-1.2v-0.6 c0-0.5-0.1-0.9-0.4-1.2c-0.3-0.3-0.7-0.5-1.1-0.5H152.2z"/> <path class="st2" d="M158.7,179.6h-2.2v2.2h-0.4v-4.6h2.9v0.3h-2.6v1.8h2.2V179.6z"/> </g> </g> <g> <rect x="78" y="233.9" class="st2" width="22.7" height="27"/> <g> <path class="st15" d="M96.1,252.2c0,1-0.8,1.7-1.7,1.7h-10c-1,0-1.7-0.8-1.7-1.7v-9.8c0-1,0.8-1.7,1.7-1.7h10 c1,0,1.7,0.8,1.7,1.7V252.2z"/> </g> <g> <path class="st2" d="M86.9,245.6h0.3v2.4c0,0.3-0.1,0.5-0.3,0.7c-0.2,0.2-0.4,0.3-0.7,0.3c-0.3,0-0.6-0.1-0.7-0.2 c-0.2-0.2-0.3-0.4-0.3-0.7l0,0h0.3c0,0.2,0.1,0.4,0.2,0.5c0.1,0.1,0.3,0.2,0.5,0.2c0.2,0,0.4-0.1,0.5-0.2 c0.1-0.1,0.2-0.3,0.2-0.5V245.6z"/> <path class="st2" d="M88.3,247.5v1.4H88v-3.3h1.1c0.3,0,0.6,0.1,0.8,0.3c0.2,0.2,0.3,0.4,0.3,0.7c0,0.3-0.1,0.5-0.3,0.7 c-0.2,0.2-0.5,0.3-0.8,0.3H88.3z M88.3,247.2h0.9c0.3,0,0.5-0.1,0.6-0.2c0.1-0.1,0.2-0.3,0.2-0.5c0-0.2-0.1-0.4-0.2-0.5 c-0.1-0.1-0.3-0.2-0.6-0.2h-0.9V247.2z"/> <path class="st2" d="M93.2,248.4c-0.1,0.1-0.2,0.2-0.4,0.3c-0.2,0.1-0.4,0.1-0.7,0.1c-0.4,0-0.7-0.1-0.9-0.4 c-0.2-0.3-0.4-0.6-0.4-1v-0.6c0-0.4,0.1-0.7,0.3-1c0.2-0.3,0.5-0.4,0.9-0.4c0.4,0,0.6,0.1,0.8,0.3c0.2,0.2,0.3,0.4,0.3,0.7l0,0 H93c0-0.2-0.1-0.4-0.3-0.5c-0.1-0.1-0.4-0.2-0.6-0.2c-0.3,0-0.5,0.1-0.7,0.3c-0.2,0.2-0.3,0.5-0.3,0.8v0.6 c0,0.3,0.1,0.6,0.3,0.8c0.2,0.2,0.4,0.3,0.7,0.3c0.2,0,0.4,0,0.6-0.1c0.2-0.1,0.3-0.1,0.3-0.2v-0.9h-0.9v-0.2h1.1V248.4z"/> </g> </g> <g> <rect x="360.1" y="244" class="st2" width="28.8" height="32.2"/> <g> <path class="st20" d="M384.3,266.9c0,1.3-1.1,2.4-2.4,2.4h-14c-1.3,0-2.4-1.1-2.4-2.4v-13.7c0-1.3,1.1-2.4,2.4-2.4h14 c1.3,0,2.4,1.1,2.4,2.4V266.9z"/> <path class="st2" d="M378.9,262.5c0,0,0-5.2,0-6.6c0-0.2-0.2-0.4-0.4-0.4h-0.8l-4.6,0.5l-0.9,0.1c-0.2,0-0.3,0.2-0.3,0.4v5.1 c-0.3-0.1-0.6-0.1-0.9-0.1c-1,0.1-1.8,0.9-1.7,1.7c0.1,0.8,1,1.3,2,1.2c1-0.1,1.8-0.9,1.7-1.7c0,0,0,0,0,0h0l0-4.3l4.6-0.5v3.4 c-0.3-0.1-0.6-0.1-0.9,0c-1,0.1-1.8,0.9-1.7,1.7c0.1,0.8,1,1.3,2,1.2C378.3,264.1,379.1,263.3,378.9,262.5z"/> </g> </g> <g> <rect x="115.1" y="297.6" class="st2" width="37.6" height="42.1"/> <g> <path class="st19" d="M145.7,327.2c0,1.6-1.3,3-3,3h-17.4c-1.6,0-3-1.3-3-3v-17c0-1.6,1.3-3,3-3h17.4c1.6,0,3,1.3,3,3V327.2z"/> <g> <path class="st2" d="M134.8,315.8c-1.4,0-2.5,1.1-2.5,2.5c0,1.4,1.1,2.5,2.5,2.5c1.4,0,2.5-1.1,2.5-2.5 C137.4,317,136.2,315.8,134.8,315.8z"/> <path class="st2" d="M141.2,321.9v-6.6c0-1-0.8-1.8-1.8-1.8h-1.3l-0.6-1.1h-5.1l-0.6,1.1h-1.5v-0.2c0,0-0.3-0.1-1-0.1 c-0.7,0-1.1,0.1-1.1,0.1v0.3c-1.1,0.2-1.9,0.9-1.9,1.7v6.6c0,1,0.8,1.8,1.8,1.8h11.4C140.5,323.7,141.2,322.9,141.2,321.9z M128.3,316c-0.3,0-0.5-0.2-0.5-0.5c0-0.3,0.2-0.5,0.5-0.5c0.3,0,0.5,0.2,0.5,0.5C128.7,315.8,128.5,316,128.3,316z M134.8,322.5c-2.3,0-4.1-1.9-4.1-4.1c0-2.3,1.8-4.1,4.1-4.1c2.3,0,4.1,1.9,4.1,4.1C139,320.7,137.1,322.5,134.8,322.5z"/> </g> </g> </g> <g> <rect x="276.9" y="133.1" class="st2" width="25.9" height="29"/> <g> <path class="st18" d="M298.7,153.8c0,1.2-1,2.2-2.2,2.2h-12.8c-1.2,0-2.2-1-2.2-2.2v-12.5c0-1.2,1-2.2,2.2-2.2h12.8 c1.2,0,2.2,1,2.2,2.2V153.8z"/> <path class="st2" d="M294.8,151c-0.2-0.6-1.5-4.8-1.5-4.8l0-0.1l-3.9-3.7c-0.1-0.1-0.5-0.4-1.3-0.1c-0.3,0.1-0.5,0.3-0.9,0.7 c-0.1,0.1-0.2,0.3-0.4,0.4c-0.3,0.3-0.6,0.6-0.8,0.9c-0.1,0.1-0.3,0.3-0.4,0.4c-0.4,0.4-0.7,0.8-0.8,1.1 c-0.3,0.6,0,1.1,0.2,1.2l3.9,3.7l5,1.2c0.1,0,0.5,0.2,0.8-0.1C294.9,151.5,294.9,151.3,294.8,151z M293.6,149.3l-1.4,1.5 l-2.7-0.7l0.7-0.4c0,0,0,0,0,0c0.2-0.1,0.3-0.1,0.7-1.5c1.4-0.5,1.5-0.7,1.6-0.9l0.3-0.8C292.9,147,293.3,148.2,293.6,149.3z M287.4,143.8c0.1-0.1,0.2-0.3,0.3-0.4c0.3-0.3,0.5-0.5,0.6-0.5c0.4-0.1,0.6,0,0.6,0l3.3,3.1l-0.4,1c-0.1,0.1-0.4,0.2-1.3,0.6 l-3.6-3.4C287.1,144.1,287.3,143.9,287.4,143.8z M285.5,146.4c0,0-0.2-0.1,0-0.5c0.1-0.2,0.5-0.7,0.7-0.9 c0.1-0.1,0.2-0.2,0.4-0.4l3.7,3.4c-0.2,0.7-0.3,0.9-0.3,1l-0.9,0.5L285.5,146.4L285.5,146.4z M294.2,151.2l-1.2-0.3l0.9-0.9 C294,150.6,294.1,151,294.2,151.2L294.2,151.2z"/> </g> </g> <g> <rect x="225.8" y="205.5" class="st25" width="21.5" height="19.4"/> <g> <polygon class="st2" points="220.3,218.9 243.8,218.9 247,215.2 247,186.8 220.3,186.8 "/> <g> <polygon class="st26" points="237.8,208.2 241.8,208.2 241.8,207.7 238.2,207.7 237.7,208.3 "/> <g> <path class="st26" d="M233.2,210c-4.3,0-7.8-3.5-7.8-7.8c0-4.3,3.5-7.8,7.8-7.8c4.3,0,7.8,3.5,7.8,7.8 C241,206.5,237.5,210,233.2,210z M235.1,197.9c0-1-0.8-1.9-1.9-1.9c-1,0-1.9,0.8-1.9,1.9c0,1,0.8,1.9,1.9,1.9 C234.2,199.8,235.1,199,235.1,197.9z M235.1,206.8c0-1-0.8-1.9-1.9-1.9c-1,0-1.9,0.8-1.9,1.9c0,1,0.8,1.9,1.9,1.9 C234.2,208.7,235.1,207.8,235.1,206.8z M229.1,200.5c-1,0-1.9,0.8-1.9,1.9c0,1,0.8,1.9,1.9,1.9c1,0,1.9-0.8,1.9-1.9 C231,201.3,230.1,200.5,229.1,200.5z M237.8,200.5c-1,0-1.9,0.8-1.9,1.9c0,1,0.8,1.9,1.9,1.9c1,0,1.9-0.8,1.9-1.9 C239.7,201.3,238.8,200.5,237.8,200.5z"/> </g> <path class="st26" d="M234.4,202.2c0-0.6-0.5-1.2-1.2-1.2c-0.7,0-1.2,0.5-1.2,1.2c0,0.7,0.5,1.2,1.2,1.2 C233.8,203.4,234.4,202.8,234.4,202.2z"/> </g> </g> </g> </g> </g> <g id="TABLET_2_"> <g class="st13"> <g class="st27"> <path class="st20" d="M350.2,320.3c0,0.3-0.2,0.5-0.5,0.5h-2.9c-0.3,0-0.5-0.2-0.5-0.5v-3.1c0-0.3,0.2-0.5,0.5-0.5h2.9 c0.3,0,0.5,0.2,0.5,0.5V320.3z"/> </g> <g class="st27"> <path class="st16" d="M360.8,320.3c0,0.3-0.2,0.5-0.5,0.5h-2.9c-0.3,0-0.5-0.2-0.5-0.5v-3.1c0-0.3,0.2-0.5,0.5-0.5h2.9 c0.3,0,0.5,0.2,0.5,0.5V320.3z"/> </g> <g class="st27"> <path class="st18" d="M371.7,320.3c0,0.3-0.2,0.5-0.5,0.5h-2.9c-0.3,0-0.5-0.2-0.5-0.5v-3.1c0-0.3,0.2-0.5,0.5-0.5h2.9 c0.3,0,0.5,0.2,0.5,0.5V320.3z"/> </g> <g class="st27"> <path class="st19" d="M350.2,334.6c0,0.3-0.2,0.5-0.5,0.5h-2.9c-0.3,0-0.5-0.2-0.5-0.5v-3.1c0-0.3,0.2-0.5,0.5-0.5h2.9 c0.3,0,0.5,0.2,0.5,0.5V334.6z"/> </g> <g class="st27"> <path class="st16" d="M360.8,334.6c0,0.3-0.2,0.5-0.5,0.5h-2.9c-0.3,0-0.5-0.2-0.5-0.5v-3.1c0-0.3,0.2-0.5,0.5-0.5h2.9 c0.3,0,0.5,0.2,0.5,0.5V334.6z"/> </g> <g class="st27"> <path class="st14" d="M371.7,334.6c0,0.3-0.2,0.5-0.5,0.5h-2.9c-0.3,0-0.5-0.2-0.5-0.5v-3.1c0-0.3,0.2-0.5,0.5-0.5h2.9 c0.3,0,0.5,0.2,0.5,0.5V334.6z"/> </g> <g class="st27"> <path class="st20" d="M350.2,349.7c0,0.3-0.2,0.5-0.5,0.5h-2.9c-0.3,0-0.5-0.2-0.5-0.5v-3.1c0-0.3,0.2-0.5,0.5-0.5h2.9 c0.3,0,0.5,0.2,0.5,0.5V349.7z"/> </g> <g class="st27"> <path class="st14" d="M360.8,349.7c0,0.3-0.2,0.5-0.5,0.5h-2.9c-0.3,0-0.5-0.2-0.5-0.5v-3.1c0-0.3,0.2-0.5,0.5-0.5h2.9 c0.3,0,0.5,0.2,0.5,0.5V349.7z"/> </g> <g class="st27"> <path class="st15" d="M371.7,349.7c0,0.3-0.2,0.5-0.5,0.5h-2.9c-0.3,0-0.5-0.2-0.5-0.5v-3.1c0-0.3,0.2-0.5,0.5-0.5h2.9 c0.3,0,0.5,0.2,0.5,0.5V349.7z"/> </g> <g class="st27"> <path class="st17" d="M350.2,364.1c0,0.3-0.2,0.5-0.5,0.5h-2.9c-0.3,0-0.5-0.2-0.5-0.5V361c0-0.3,0.2-0.5,0.5-0.5h2.9 c0.3,0,0.5,0.2,0.5,0.5V364.1z"/> </g> <g class="st27"> <path class="st19" d="M360.8,364.1c0,0.3-0.2,0.5-0.5,0.5h-2.9c-0.3,0-0.5-0.2-0.5-0.5V361c0-0.3,0.2-0.5,0.5-0.5h2.9 c0.3,0,0.5,0.2,0.5,0.5V364.1z"/> </g> <g class="st27"> <path class="st20" d="M371.7,364.1c0,0.3-0.2,0.5-0.5,0.5h-2.9c-0.3,0-0.5-0.2-0.5-0.5V361c0-0.3,0.2-0.5,0.5-0.5h2.9 c0.3,0,0.5,0.2,0.5,0.5V364.1z"/> </g> </g> <g> <path class="st1" d="M380.2,378.2c0,2.6-1.2,4-3.5,4h-56.1c-2.3,0-3.5-1.4-3.5-4v-79.8c0-2.6,1.2-4,3.5-4h56.1 c2.3,0,3.5,1.4,3.5,4V378.2z"/> <rect x="321.1" y="301.5" class="st2" width="55.1" height="70.3"/> </g> <g> <rect x="320.8" y="309.4" class="st3" width="21.3" height="62.7"/> <rect x="320.9" y="324.9" class="st1" width="21.2" height="17.4"/> <rect x="320.8" y="301.3" class="st1" width="55.4" height="8.3"/> <g> <rect x="370" y="306.2" class="st28" width="3.4" height="0.5"/> <rect x="370" y="304.7" class="st28" width="3.4" height="0.5"/> <rect x="370" y="303.2" class="st28" width="3.4" height="0.5"/> </g> <path class="st4" d="M332.4,316.5c0-2.5-2.1-4.6-4.6-4.6c-2.5,0-4.6,2.1-4.6,4.6c0,2.5,2.1,4.6,4.6,4.6 C330.3,321.1,332.4,319,332.4,316.5z"/> <rect x="333.7" y="317" class="st4" width="3.1" height="0.5"/> <rect x="329.7" y="326.7" class="st5" width="3.9" height="0.5"/> <rect x="335.2" y="326.7" class="st5" width="1" height="0.5"/> <rect x="336.7" y="326.7" class="st5" width="1" height="0.5"/> <rect x="329.4" y="323.8" class="st5" width="3.9" height="0.5"/> <rect x="335" y="323.8" class="st5" width="1" height="0.5"/> <rect x="336.5" y="323.8" class="st5" width="1" height="0.5"/> <rect x="333.7" y="314.9" class="st4" width="4.2" height="0.8"/> <rect x="337.8" y="317" class="st4" width="2.7" height="0.5"/> <rect x="329.7" y="329.4" class="st5" width="3.9" height="0.5"/> <rect x="335.2" y="329.4" class="st5" width="1" height="0.5"/> <rect x="336.7" y="329.4" class="st5" width="1" height="0.5"/> <rect x="329.7" y="332" class="st5" width="3.9" height="0.5"/> <rect x="335.2" y="332" class="st5" width="1" height="0.5"/> <rect x="336.7" y="332" class="st5" width="1" height="0.5"/> <path class="st4" d="M325.5,336.5h14c0.1,0,0.1-0.1,0.1-0.1v-1.1c0-0.1-0.1-0.1-0.1-0.1h-14c-0.1,0-0.1,0.1-0.1,0.1v1.1 C325.4,336.4,325.4,336.5,325.5,336.5z"/> <path class="st7" d="M325.4,336.5h4.6c0,0,0.1,0,0.1-0.1v-1.2c0,0,0-0.1-0.1-0.1h-4.6c0,0-0.1,0-0.1,0.1L325.4,336.5 C325.4,336.4,325.4,336.5,325.4,336.5z"/> <g> <path class="st8" d="M329,314.9c0,1,0,2-0.8,2c-0.3,0-1-0.1-1.2-0.3c-0.4-0.3-0.4-0.9-0.4-1.6c0-1,0.4-1.5,1.1-1.5 C328.5,313.6,329,313.9,329,314.9z"/> <path class="st8" d="M327,315.4c0,0.3-0.2,0.6-0.3,0.6c-0.2,0-0.3-0.3-0.3-0.6c0-0.3,0.2-0.6,0.3-0.6 C326.8,314.8,327,315,327,315.4z"/> <polygon class="st8" points="329,314.2 329.1,315.6 328.6,315.6 328.5,314.2 "/> <path class="st9" d="M328.7,314.9c0-0.1-0.1-0.2-0.2-0.2c-0.1,0-0.2,0.1-0.2,0.2c0,0.1,0.1,0.2,0.2,0.2 C328.6,315.1,328.7,315,328.7,314.9z"/> <path class="st9" d="M328.8,314.2h-0.7c0,0-0.9-0.1-0.9,0.2c0,0.3-0.1,0.3-0.1,0.4c0.1,0.3,0,0.4,0,0.4l-0.3,0 c0,0,0.1-0.4-0.1-0.4c-0.2-0.1-0.3,0-0.3,0.1c0.1-0.5-0.1-1.5,0.8-1.5s1.4-0.1,1.7-0.1C329.2,313.4,329.5,314.1,328.8,314.2z"/> <path class="st9" d="M325.4,318.8h4.8c0-0.9-0.7-1.7-1.7-1.7H327C326.1,317.1,325.4,317.9,325.4,318.8z"/> <polygon class="st8" points="327,317.2 327.8,317.9 328.2,317.2 328.2,316.4 327,316.4 "/> </g> <g> <path class="st4" d="M352.6,322.2c0,0.7-0.5,1.2-1.1,1.2h-6.5c-0.6,0-1.1-0.5-1.1-1.2v-6.9c0-0.7,0.5-1.2,1.1-1.2h6.5 c0.6,0,1.1,0.5,1.1,1.2V322.2z"/> </g> <rect x="345" y="324.4" class="st4" width="6" height="0.9"/> <g> <path class="st4" d="M363.3,322.2c0,0.7-0.5,1.2-1.1,1.2h-6.5c-0.6,0-1.1-0.5-1.1-1.2v-6.9c0-0.7,0.5-1.2,1.1-1.2h6.5 c0.6,0,1.1,0.5,1.1,1.2V322.2z"/> </g> <rect x="355.6" y="324.4" class="st4" width="6" height="0.9"/> <g> <path class="st4" d="M374.1,322.2c0,0.7-0.5,1.2-1.1,1.2h-6.5c-0.6,0-1.1-0.5-1.1-1.2v-6.9c0-0.7,0.5-1.2,1.1-1.2h6.5 c0.6,0,1.1,0.5,1.1,1.2V322.2z"/> </g> <rect x="366.5" y="324.4" class="st4" width="6" height="0.9"/> <g> <path class="st4" d="M352.6,336.6c0,0.7-0.5,1.2-1.1,1.2h-6.5c-0.6,0-1.1-0.5-1.1-1.2v-6.9c0-0.7,0.5-1.2,1.1-1.2h6.5 c0.6,0,1.1,0.5,1.1,1.2V336.6z"/> </g> <rect x="345" y="338.8" class="st4" width="6" height="0.9"/> <g> <path class="st4" d="M363.3,336.6c0,0.7-0.5,1.2-1.1,1.2h-6.5c-0.6,0-1.1-0.5-1.1-1.2v-6.9c0-0.7,0.5-1.2,1.1-1.2h6.5 c0.6,0,1.1,0.5,1.1,1.2V336.6z"/> </g> <rect x="355.6" y="338.8" class="st4" width="6" height="0.9"/> <g> <path class="st4" d="M374.1,336.6c0,0.7-0.5,1.2-1.1,1.2h-6.5c-0.6,0-1.1-0.5-1.1-1.2v-6.9c0-0.7,0.5-1.2,1.1-1.2h6.5 c0.6,0,1.1,0.5,1.1,1.2V336.6z"/> </g> <rect x="366.5" y="338.8" class="st4" width="6" height="0.9"/> <g> <path class="st4" d="M352.6,352.1c0,0.7-0.5,1.2-1.1,1.2h-6.5c-0.6,0-1.1-0.5-1.1-1.2v-6.9c0-0.7,0.5-1.2,1.1-1.2h6.5 c0.6,0,1.1,0.5,1.1,1.2V352.1z"/> </g> <rect x="345" y="354.3" class="st4" width="6" height="0.9"/> <g> <path class="st4" d="M363.3,352.1c0,0.7-0.5,1.2-1.1,1.2h-6.5c-0.6,0-1.1-0.5-1.1-1.2v-6.9c0-0.7,0.5-1.2,1.1-1.2h6.5 c0.6,0,1.1,0.5,1.1,1.2V352.1z"/> </g> <rect x="355.6" y="354.3" class="st4" width="6" height="0.9"/> <g> <path class="st4" d="M374.1,352.1c0,0.7-0.5,1.2-1.1,1.2h-6.5c-0.6,0-1.1-0.5-1.1-1.2v-6.9c0-0.7,0.5-1.2,1.1-1.2h6.5 c0.6,0,1.1,0.5,1.1,1.2V352.1z"/> </g> <rect x="366.5" y="354.3" class="st4" width="6" height="0.9"/> <g> <path class="st4" d="M352.6,366.4c0,0.7-0.5,1.2-1.1,1.2h-6.5c-0.6,0-1.1-0.5-1.1-1.2v-6.9c0-0.7,0.5-1.2,1.1-1.2h6.5 c0.6,0,1.1,0.5,1.1,1.2V366.4z"/> </g> <rect x="345" y="368.6" class="st4" width="6" height="0.9"/> <g> <path class="st4" d="M363.3,366.4c0,0.7-0.5,1.2-1.1,1.2h-6.5c-0.6,0-1.1-0.5-1.1-1.2v-6.9c0-0.7,0.5-1.2,1.1-1.2h6.5 c0.6,0,1.1,0.5,1.1,1.2V366.4z"/> </g> <rect x="355.6" y="368.6" class="st4" width="6" height="0.9"/> <g> <path class="st4" d="M374.1,366.4c0,0.7-0.5,1.2-1.1,1.2h-6.5c-0.6,0-1.1-0.5-1.1-1.2v-6.9c0-0.7,0.5-1.2,1.1-1.2h6.5 c0.6,0,1.1,0.5,1.1,1.2V366.4z"/> </g> <rect x="366.5" y="368.6" class="st4" width="6" height="0.9"/> <rect x="368.9" y="310.1" class="st4" width="6.4" height="0.6"/> <rect x="364.2" y="310.1" class="st4" width="4.2" height="0.6"/> <rect x="344.8" y="310.1" class="st4" width="4.2" height="0.6"/> <rect x="334.6" y="305" class="st22" width="8" height="1.8"/> <g> <path class="st4" d="M330,304.1L330,304.1c-0.4-0.9-1.3-1.5-2.3-1.5c-1.3,0-2.3,1-2.4,2.2c-0.9,0.1-1.5,0.8-1.5,1.6 c0,0.9,0.7,1.6,1.6,1.6h1.3c0.1,0,0.6,0,0.6,0v-1.9h-0.9l1.3-1.6l1.3,1.6h-0.9v1.9h1.7c1,0,1.9-0.8,1.9-1.9V306 C331.9,304.9,331.1,304.1,330,304.1z"/> </g> </g> </g> <g id="PHONE_3_"> <path class="st1" d="M343.1,389.6c0,2.2-1,3.4-2.9,3.4h-35.6c-1.9,0-2.9-1.2-2.9-3.4v-66.8c0-2.2,1-3.4,2.9-3.4h35.6 c1.9,0,2.9,1.2,2.9,3.4V389.6z"/> <g> <rect x="305" y="325.2" class="st2" width="34.8" height="58.8"/> <rect x="305" y="333.1" class="st3" width="34.9" height="28.7"/> <rect x="305" y="325" class="st1" width="34.9" height="8.1"/> <g> <rect x="333.9" y="330.1" class="st28" width="3.4" height="0.5"/> <rect x="333.9" y="328.6" class="st28" width="3.4" height="0.5"/> <rect x="333.9" y="327.1" class="st28" width="3.4" height="0.5"/> </g> <path class="st4" d="M316.4,340.2c0-2.5-2.1-4.6-4.6-4.6c-2.5,0-4.6,2.1-4.6,4.6c0,2.5,2.1,4.6,4.6,4.6 C314.3,344.8,316.4,342.7,316.4,340.2z"/> <rect x="317.6" y="340.7" class="st4" width="3.1" height="0.5"/> <rect x="313.6" y="350.4" class="st5" width="3.9" height="0.5"/> <rect x="319.2" y="350.4" class="st5" width="1" height="0.5"/> <rect x="320.7" y="350.4" class="st5" width="1" height="0.5"/> <rect x="313.4" y="347.5" class="st5" width="3.9" height="0.5"/> <rect x="319" y="347.5" class="st5" width="1" height="0.5"/> <rect x="320.5" y="347.5" class="st5" width="1" height="0.5"/> <rect x="317.6" y="338.6" class="st4" width="4.2" height="0.8"/> <rect x="321.8" y="340.7" class="st4" width="2.7" height="0.5"/> <rect x="313.6" y="353.1" class="st5" width="3.9" height="0.5"/> <rect x="319.2" y="353.1" class="st5" width="1" height="0.5"/> <rect x="320.7" y="353.1" class="st5" width="1" height="0.5"/> <rect x="313.6" y="355.7" class="st5" width="3.9" height="0.5"/> <rect x="319.2" y="355.7" class="st5" width="1" height="0.5"/> <rect x="320.7" y="355.7" class="st5" width="1" height="0.5"/> <path class="st4" d="M309.5,360.2h14c0.1,0,0.1-0.1,0.1-0.1v-1.1c0-0.1-0.1-0.1-0.1-0.1h-14c-0.1,0-0.1,0.1-0.1,0.1v1.1 C309.4,360.1,309.4,360.2,309.5,360.2z"/> <path class="st7" d="M309.4,360.2h4.6c0,0,0.1,0,0.1-0.1v-1.2c0,0,0-0.1-0.1-0.1h-4.6c0,0-0.1,0-0.1,0.1L309.4,360.2 C309.4,360.1,309.4,360.2,309.4,360.2z"/> <g> <path class="st8" d="M313,338.6c0,1,0,2-0.8,2c-0.3,0-1-0.1-1.2-0.3c-0.4-0.3-0.4-0.9-0.4-1.6c0-1,0.4-1.5,1.1-1.5 C312.5,337.3,313,337.7,313,338.6z"/> <path class="st8" d="M311,339.1c0,0.3-0.2,0.6-0.3,0.6c-0.2,0-0.3-0.3-0.3-0.6c0-0.3,0.2-0.6,0.3-0.6 C310.8,338.5,311,338.7,311,339.1z"/> <polygon class="st8" points="313,337.9 313.1,339.3 312.6,339.3 312.5,337.9 "/> <path class="st9" d="M312.6,338.6c0-0.1-0.1-0.2-0.2-0.2c-0.1,0-0.2,0.1-0.2,0.2c0,0.1,0.1,0.2,0.2,0.2 C312.5,338.8,312.6,338.7,312.6,338.6z"/> <path class="st9" d="M312.8,338h-0.7c0,0-0.9-0.1-0.9,0.2c0,0.3-0.1,0.3-0.1,0.4c0.1,0.3,0,0.4,0,0.4l-0.3,0 c0,0,0.1-0.4-0.1-0.4c-0.2-0.1-0.3,0-0.3,0.1c0.1-0.5-0.1-1.5,0.8-1.5c0.9,0,1.4-0.1,1.7-0.1C313.2,337.1,313.5,337.8,312.8,338 z"/> <path class="st9" d="M309.3,342.5h4.8c0-0.9-0.7-1.7-1.7-1.7H311C310.1,340.8,309.3,341.6,309.3,342.5z"/> <polygon class="st8" points="311,340.9 311.8,341.7 312.2,340.9 312.2,340.1 311,340.1 "/> </g> <g> <rect x="325.3" y="366.9" class="st4" width="9.8" height="9.6"/> </g> <g> <polygon class="st4" points="319.6,376.3 319.6,376.3 310,376.3 310,366.9 319.6,366.9 "/> </g> <rect x="310.4" y="378" class="st11" width="2.7" height="0.8"/> <rect x="313.9" y="378" class="st11" width="5.3" height="0.8"/> <rect x="325.7" y="378" class="st11" width="2.7" height="0.8"/> <rect x="329.2" y="378" class="st11" width="5.3" height="0.8"/> <rect x="316.8" y="328.8" class="st22" width="7.2" height="1.6"/> <g> <path class="st4" d="M312.7,327.9L312.7,327.9c-0.4-0.8-1.1-1.3-2.1-1.3c-1.1,0-2.1,0.9-2.2,2c-0.8,0-1.4,0.7-1.4,1.5 c0,0.8,0.7,1.5,1.5,1.5h1.2c0.1,0,0.6,0,0.6,0v-1.7h-0.8l1.2-1.4l1.2,1.4h-0.8v1.7h1.5c0.9,0,1.7-0.8,1.7-1.7v-0.2 C314.4,328.7,313.7,327.9,312.7,327.9z"/> </g> </g> </g> </g> </svg>