<?xml version='1.0' encoding='utf-8'?>
<svg xmlns="http://www.w3.org/2000/svg" id="Ebene_1" data-name="Ebene 1" viewBox="0 0 800 800"><defs><clipPath id="clip-path"><circle cx="400" cy="400" r="400" style="fill:none"/></clipPath><linearGradient id="Unbenannter_Verlauf_6" x1="432.9907" y1="347.6574" x2="168.6572" y2="611.9909" gradientUnits="userSpaceOnUse"><stop offset="0"/><stop offset="1" stop-opacity="0"/></linearGradient></defs><title>handshake</title><circle cx="400" cy="400" r="400" style="fill:#1c8adb"/><g style="clip-path:url(#clip-path)"><path d="M239.8281,775.8281,644.68,370.9765,519.6063,245.903l-53.2092,53.21.0165.0164-8,8.0822c-15.8755-12.641-39.9957-10.8192-55.7136,4.8987l-1.5393,1.5394c-.4317-.4842-.8535-.99-1.303-1.44-14.6338-14.6337-38.6439-14.7814-55.445-1.04l-5.37-5.37.0518-.0518-49.6016-49.6016L155.32,390.32l-139,139C51.92,646.2079,127.2561,727.6337,239.8281,775.8281Z" style="opacity:0.42;fill:url(#Unbenannter_Verlauf_6)"/><path d="M466.3971,299.1132l.0164.0164-8,8.0821c-15.8755-12.641-39.9957-10.8191-55.7135,4.8987l-1.5393,1.5393c-.4317-.4842-.8536-.99-1.3031-1.44-14.6338-14.6337-38.6439-14.7814-55.445-1.04l-5.37-5.37.0518-.0518-49.6016-49.6016L155.32,390.32l49.6018,49.5995,20.1343-20.1337,59.6077,59.6058c-.5448.46-1.0806.9368-1.5947,1.4509-9.2461,9.2461-9.7563,23.78-1.1372,32.4a21.6491,21.6491,0,0,0,19.5843,5.6962,21.18,21.18,0,0,0,25.2806,25.2806,21.18,21.18,0,0,0,25.2805,25.2805,21.6491,21.6491,0,0,0,5.6963,19.5844c8.6191,8.6191,23.1534,8.109,32.4-1.1372a25.5289,25.5289,0,0,0,1.7291-1.9233l-.0045.0059c8.7011,5.7773,21.0206,4.452,29.2046-3.7319a24.2464,24.2464,0,0,0,7.0868-20.033,24.6627,24.6627,0,0,0,27.12-27.12,24.6625,24.6625,0,0,0,27.12-27.12,24.2464,24.2464,0,0,0,20.033-7.0868c8.1484-8.1484,9.5024-20.399,3.812-29.0934l66.427-66.4279,18.77,18.77,53.2091-53.21L519.6063,245.903ZM167.72,389.8846,289.0585,268.5468l37.6373,37.6373L205.3568,427.5209Zm120.6293,116.94c-5.3293-5.3293-5.0149-14.2839.702-20.0008s14.6715-6.0313,20.0008-.702,5.0148,14.2838-.7021,20.0007S293.6781,512.154,288.3489,506.8248Zm25.2805,25.2805c-5.3292-5.3292-5.0149-14.2839.702-20.0008s14.6716-6.0312,20.0008-.702,5.0149,14.2839-.702,20.0008S318.9586,537.4345,313.6294,532.1054ZM338.91,557.386c-5.3293-5.3293-5.0149-14.2839.702-20.0008s14.6715-6.0313,20.0008-.702,5.0148,14.2838-.7021,20.0007S344.2392,562.7151,338.91,557.386Zm45.2813,24.5785c-5.7169,5.7169-14.6716,6.0312-20.0008.702s-5.0149-14.2839.702-20.0008,14.6716-6.0312,20.0008-.702S389.9082,576.2476,384.1913,581.9645ZM497.1837,474.9574c5.327,5.3294,5.0121,14.2825-.704,19.9986s-14.6715,6.0313-20.0008.702l-.02-.0224-.0012.0012-12.2513-12.2513-37.3347-37.3347-6.417,6.417,37.3347,37.3347,12.2726,12.2726c5.3293,5.3293,5.0149,14.2837-.7021,20.0007s-14.6713,6.0313-20.0006.702h0l-.0016-.0015-12.271-12.271L399.752,473.1705l-6.417,6.417L430.67,516.922l12.2514,12.2514-.0011.0011.0206.0185.0018.0018h0c5.3293,5.3293,5.0148,14.2838-.7021,20.0007s-14.6715,6.0313-20.0008.702l-.02-.0224L372.6335,500.289l-6.4181,6.4181L403.55,544.0418l12.2513,12.2513.7608.7608-.04.04c4.5761,5.389,4.0477,13.7721-1.4015,19.2212-5.3212,5.3212-13.444,5.9553-18.841,1.721a21.9576,21.9576,0,0,0-4.9692-22.4894,21.6492,21.6492,0,0,0-19.5844-5.6963A21.18,21.18,0,0,0,346.4454,524.57a21.18,21.18,0,0,0-25.2806-25.2806,21.6491,21.6491,0,0,0-5.6962-19.5843c-5.9429-5.9429-14.6974-7.5423-22.5922-4.9338L231.4741,413.369h-.0015L332.6271,312.2169l11.18,11.18,3.1406-3.1406c13.2666-13.2659,34.1219-13.9985,46.4927-1.631.4459.4466.8732.9453,1.3017,1.4429l-47.6583,47.6583c-8.921,8.921-9.413,22.9431-1.0972,31.26a20.57,20.57,0,0,0,15.4027,5.9145,23.669,23.669,0,0,0,15.8563-7.0127L398.68,376.4551l86.2284,86.2276h-.0008L497.16,474.9345l-.0006.0006.02.0182Zm69.5356-75.522-66.112,66.1131-85.5856-85.5866-.0019-.0007c14.6459,5.07,32.1625,1.3208,44.51-11.0258a46.9552,46.9552,0,0,0,4.04-4.6076,4.29,4.29,0,0,0-.658-6.1071,4.4974,4.4974,0,0,0-6.1694,1.0877,36.9,36.9,0,0,1-3.1957,3.647c-13.2689,13.268-34.1277,14.0023-46.4927,1.6361-.2169-.2157-.41-.4453-.607-.6736l-.4605-.5236a4.2081,4.2081,0,0,0-4.7877-.9414,4.7913,4.7913,0,0,0-1.81,1.3312l-28.1234,28.1234c-5.3837,5.3817-13.8428,5.6786-18.8615.662a12.365,12.365,0,0,1-3.5753-9.2937,14.24,14.24,0,0,1,4.2372-9.5679l55.6163-55.6163c13.2711-13.268,34.13-13.997,46.4968-1.6308a4.3922,4.3922,0,0,0,6.1988-.2186l.0161-.0194.0016.0016,11-11.1135Zm25.1865,12.3527L478.7946,298.678,579.1174,399,478.7951,298.6774l40.376-40.3749,113.1112,113.109Z" style="fill:#fff"/></g></svg>